<?xml version="1.0" standalone="no"?>
<!DOCTYPE svg PUBLIC "-//W3C//DTD SVG 20010904//EN"
 "http://www.w3.org/TR/2001/REC-SVG-20010904/DTD/svg10.dtd">
<svg version="1.0" xmlns="http://www.w3.org/2000/svg"
 width="1140pt" height="728pt" viewBox="0 0 1140 728"
 preserveAspectRatio="xMidYMid meet">
 <rect width="100%" height="100%" fill="#EEE"/>
<g transform="translate(0.000000,728.000000) scale(0.100000,-0.100000)"
fill="#000000" stroke="none">
<path d="M6168 6809 c-129 -11 -264 -87 -573 -319 -82 -62 -177 -125 -210
-141 -33 -16 -186 -70 -340 -120 -154 -50 -316 -102 -360 -117 l-79 -27 -53
-78 c-29 -43 -53 -83 -53 -88 0 -7 17 -9 48 -5 149 20 346 37 477 43 144 5
153 5 230 -21 117 -40 275 -125 400 -217 210 -154 351 -215 441 -191 34 9 78
9 189 0 165 -13 351 -1 407 27 85 43 188 111 188 126 0 8 -11 49 -25 89 -106
311 -47 490 159 490 100 0 204 -74 264 -189 63 -119 209 -546 193 -562 -3 -3
-64 -11 -136 -18 -181 -17 -450 -56 -580 -86 -60 -14 -113 -25 -117 -25 -4 0
-8 19 -10 41 -4 62 -21 68 -115 41 -43 -13 -94 -31 -113 -40 l-35 -17 -3 -85
c-2 -58 1 -91 10 -102 7 -10 58 -31 113 -48 115 -35 145 -32 145 19 0 16 6 33
13 39 15 12 264 74 407 101 137 26 330 42 405 33 l60 -7 14 -43 13 -44 -85
-126 c-132 -196 -160 -226 -401 -441 -225 -201 -251 -226 -222 -215 9 3 16 2
16 -4 0 -5 20 -15 45 -21 25 -6 45 -16 45 -21 0 -6 3 -9 8 -8 16 4 62 -26 58
-38 -3 -8 0 -11 9 -8 17 7 101 -49 115 -76 6 -11 18 -20 27 -20 9 0 14 -3 11
-6 -4 -3 7 -18 23 -33 16 -16 29 -33 29 -39 0 -6 9 -16 20 -22 11 -6 20 -17
20 -25 0 -8 5 -15 11 -15 5 0 8 -4 5 -9 -3 -5 1 -14 9 -21 8 -7 13 -16 10 -20
-3 -4 1 -10 9 -13 7 -3 18 -26 25 -51 6 -24 15 -47 20 -51 5 -3 8 -17 5 -30
-2 -14 0 -25 6 -25 5 0 10 -11 10 -24 0 -14 4 -27 9 -31 6 -3 10 -13 10 -23 0
-9 1 -47 4 -84 3 -45 0 -68 -7 -68 -6 0 -6 -4 2 -9 8 -5 11 -18 7 -37 -4 -16
-7 -37 -6 -47 0 -9 -3 -16 -7 -13 -4 2 -8 -17 -8 -42 -1 -25 -6 -48 -12 -50
-6 -2 -8 -10 -5 -18 3 -8 -2 -25 -11 -39 -9 -13 -16 -35 -16 -49 0 -16 -7 -27
-21 -31 -17 -6 -19 -9 -8 -17 11 -7 11 -11 2 -15 -7 -2 -13 -11 -13 -19 0 -8
-5 -14 -12 -14 -6 0 -9 -3 -6 -6 3 -3 -4 -16 -16 -29 -58 -65 -66 -75 -66 -83
0 -12 -39 -45 -72 -62 -16 -7 -26 -16 -23 -18 7 -8 -26 -42 -41 -42 -7 0 -14
-4 -16 -8 -5 -13 -74 -52 -92 -52 -9 0 -16 -4 -16 -10 0 -5 -7 -6 -17 -3 -11
4 -14 3 -9 -5 7 -11 3 -13 -36 -16 -7 -1 -15 -3 -18 -6 -13 -14 -58 -26 -89
-24 -21 1 -29 -1 -20 -6 17 -11 -63 -17 -112 -9 -19 3 -43 3 -54 -1 -19 -7
-87 2 -119 15 -14 6 -17 5 -11 -4 6 -10 3 -11 -14 -2 -12 7 -27 9 -33 5 -7 -5
-8 -3 -3 6 5 9 2 10 -14 5 -12 -4 -21 -2 -21 4 0 6 -8 11 -19 11 -27 0 -83 25
-74 33 3 4 -3 7 -14 7 -31 0 -99 36 -82 44 8 3 4 3 -9 0 -15 -4 -24 0 -28 10
-3 9 -12 16 -20 16 -8 0 -14 7 -14 15 0 8 -6 15 -13 15 -8 0 -35 22 -61 50
-26 27 -45 50 -42 50 3 0 -2 8 -11 18 -39 41 -97 122 -88 122 3 0 -1 10 -9 23
-26 40 -66 160 -60 179 3 10 1 18 -3 18 -5 0 -9 10 -10 23 0 12 -3 39 -5 60
-3 23 -1 37 6 37 8 0 8 3 -1 8 -7 4 -10 30 -7 72 2 36 5 72 5 80 1 24 41 165
48 170 3 3 7 15 8 28 3 26 81 152 94 152 5 0 9 6 9 13 1 33 181 194 203 180 7
-3 9 -2 4 2 -8 10 69 58 95 60 10 1 20 4 22 6 11 11 -109 155 -229 274 -149
149 -183 201 -230 348 l-31 99 -110 -116 c-60 -64 -114 -116 -119 -116 -24 0
-146 -93 -218 -166 -89 -89 -203 -236 -261 -335 l-39 -66 -101 -43 c-55 -24
-127 -52 -159 -63 -48 -16 -63 -27 -84 -60 -77 -123 -114 -288 -143 -642 -6
-71 -22 -219 -36 -328 -14 -108 -24 -203 -21 -211 7 -17 190 -46 296 -46 44 0
124 5 178 11 54 6 107 11 117 12 17 2 22 -13 43 -133 29 -170 89 -411 106
-426 16 -15 721 -268 796 -286 8 -2 94 99 210 246 108 137 199 250 202 250 3
1 125 -91 269 -204 145 -113 281 -218 302 -233 l37 -28 158 50 c183 58 502
153 586 174 l57 15 0 -160 c0 -87 -6 -225 -12 -306 -18 -204 -16 -370 5 -462
19 -83 33 -114 40 -90 2 8 43 132 90 275 133 401 167 539 211 845 78 542 95
1061 47 1455 -54 437 -82 519 -264 765 -140 191 -200 262 -247 295 -41 28 -87
88 -148 192 -18 31 -38 88 -52 153 -77 363 -236 787 -377 1009 -82 129 -181
219 -313 286 -180 91 -464 143 -672 124z"/>
<path d="M5912 5468 c-8 -8 -12 -58 -12 -160 0 -184 -2 -182 133 -143 139 41
137 39 137 143 0 48 -4 92 -8 98 -7 12 -194 74 -222 74 -9 0 -21 -5 -28 -12z"/>
<path d="M6197 5403 c-12 -12 -8 -178 5 -191 7 -7 36 -12 65 -12 64 0 73 12
73 105 0 94 -8 105 -79 105 -32 0 -61 -3 -64 -7z"/>
<path d="M3815 5167 c-57 -48 -20 -147 55 -147 16 0 41 10 55 23 57 48 20 147
-55 147 -16 0 -41 -10 -55 -23z"/>
<path d="M3065 5164 c-37 -19 -45 -31 -45 -70 0 -47 34 -84 76 -84 47 0 69 13
84 50 16 39 -1 85 -41 105 -35 18 -37 18 -74 -1z"/>
<path d="M4586 4233 c-4 -5 -373 -8 -819 -9 -784 0 -816 -1 -920 -22 -107 -20
-153 -39 -164 -67 -15 -40 118 -188 297 -330 98 -78 328 -244 391 -283 l37
-22 52 187 c87 316 113 381 188 464 l43 48 -68 4 c-37 2 164 4 448 5 449 2
518 4 523 17 6 16 3 19 -8 8z"/>
<path d="M7325 990 c-43 -83 -173 -177 -297 -216 l-56 -17 5 -36 c20 -142 70
-278 115 -316 36 -30 62 -31 106 -5 32 20 33 22 30 82 -3 59 -2 62 24 72 20 7
38 4 78 -13 58 -25 91 -22 128 11 26 25 27 43 7 93 -24 56 -9 68 75 59 62 -6
68 -4 98 21 73 61 26 126 -171 233 -63 34 -117 62 -121 62 -3 0 -12 -14 -21
-30z"/>
<path d="M5633 921 c-91 -59 -237 -186 -257 -224 -44 -81 34 -158 114 -112 62
36 108 7 90 -56 -6 -19 -10 -49 -10 -67 0 -28 5 -35 35 -48 57 -23 75 -18 126
37 58 63 80 62 129 -8 41 -59 68 -82 97 -83 61 0 89 46 77 129 -5 31 -9 105
-9 165 l0 109 -52 12 c-81 19 -158 61 -222 125 l-60 59 -58 -38z"/>
</g>
</svg>